# xmcd
# 
# Track frame offsets:
#     150
#     15139
#     34511
#     49301
#     60124
#     74894
#     97577
#     110153
#     123872
#     137864
#     153607
#     169573
# 
# Disc length: 2594
# 
# Revision: 0
# Processed by: cddbd v1.5.2PL0 Copyright (c) Steve Scherf et al.
# Submitted via: fre:ac v1.0.31
# 
DISCID=950a200c
DTITLE=Hermann Kopp - Zyanidanger
DYEAR=0
DGENRE=
TTITLE0=An die Chemie
TTITLE1=Jabir ibn hayyan
TTITLE2=Mutus
TTITLE3=Arsenicum
TTITLE4=Raven's head
TTITLE5=Metalmorphosis
TTITLE6=Tabula
TTITLE7=Alaun
TTITLE8=Henry Cavendish
TTITLE9=Black chemistry
TTITLE10=Gas hinter Glas
TTITLE11=The gold bug
EXTD=
EXTT0=
EXTT1=
EXTT2=
EXTT3=
EXTT4=
EXTT5=
EXTT6=
EXTT7=
EXTT8=
EXTT9=
EXTT10=
EXTT11=
PLAYORDER=
